# xmcd CD database file
#
# Track frame offsets:
#	150
#	26119
#	54059
#	78540
#	104560
#	123179
#	147731
#	181026
#	199602
#	215939
#	235453
#
# Disc length: 3422 seconds
#
# Revision: 0
# Processed by: cddbd v1.5.1PL2 Copyright (c) Steve Scherf et al.
# Submitted via: CDex 1.50
#
DISCID=a00d5c0b
DTITLE=Elisabeth Kontomanou - Wainting for spring
DYEAR=2005
DGENRE=Jazz
TTITLE0=sunny
TTITLE1=waitin' for spring
TTITLE2=i gotta right to sing the blues
TTITLE3=the good life
TTITLE4=fever
TTITLE5=Duke Ellington sound for love
TTITLE6=Ayanna left New Orleans and went to Mexico
TTITLE7=the bird in me
TTITLE8=I'll never be the same
TTITLE9=will love stay in my heart
TTITLE10=we'll be together again
EXTD=YEAR: 2005
EXTT0=
EXTT1=
EXTT2=
EXTT3=
EXTT4=
EXTT5=
EXTT6=
EXTT7=
EXTT8=
EXTT9=
EXTT10=
PLAYORDER=
